<?xml version="1.0" encoding="UTF-8"?>
<svg width="91px" height="60px" viewBox="0 0 91 60" version="1.1" xmlns="http://www.w3.org/2000/svg" xmlns:xlink="http://www.w3.org/1999/xlink">
    <!-- Generator: Sketch 63.1 (92452) - https://sketch.com -->
    <title>Elements/Logo</title>
    <desc>Created with Sketch.</desc>
    <g id="Landing-OTS" stroke="none" stroke-width="1" fill="none" fill-rule="evenodd">
        <g id="LandingOTS" transform="translate(-1136.000000, -2964.000000)" fill="#ffffff">
            <g id="Desktop-/-Footer" transform="translate(0.000000, 2755.000000)">
                <g id="Elements/Logo" transform="translate(1136.000000, 209.000000)">
                    <g id="ho">
                        <path d="M61.4162074,22.3875144 C72.4039229,22.3875144 80.5444775,30.6779764 80.5444775,41.0561269 L80.5444775,41.1905118 C80.5444775,51.5686623 72.3361503,59.9942357 61.2842293,59.9942357 C50.2979406,59.9942357 42.1566726,51.7045 42.1566726,41.3248968 L42.1566726,41.1905118 C42.1566726,30.8123614 50.3635729,22.3875144 61.4162074,22.3875144 Z M5.81702585,0.482040539 C9.06582836,0.482040539 11.6340517,3.09855191 11.6340517,6.40442177 L11.6340517,14.3687279 L11.6333383,26.0921807 C14.815795,24.4207224 16.3545889,23.4713109 20.3638708,23.4713109 C33.0123707,23.4713109 40.2775892,32.8709936 40.5600938,44.7462651 C40.5850626,44.9729035 40.6007573,45.2046267 40.6007573,45.439982 L40.6007573,53.7013878 C40.6007573,57.0101633 38.032534,59.6244954 34.7837314,59.6244954 C31.5356423,59.6244954 28.9681324,57.0101633 28.9681324,53.7013878 L28.9681324,45.4501517 C28.9681324,39.2263123 26.7080959,33.7906225 20.209064,33.7906225 C13.7328609,33.7906225 11.9258304,38.6793292 11.6333383,44.5922672 L11.6333383,53.7013878 C11.6333383,57.0101633 9.06440157,59.6244954 5.81631245,59.6244954 C2.56822333,59.6244954 0,57.0101633 0,53.7013878 L0.00071339537,6.40442177 C0.00071339537,3.09855191 2.56893673,0.482040539 5.81702585,0.482040539 Z M85.4069803,47.8247701 C88.6222532,47.8247701 91,50.2473313 91,53.38976 L91,53.38976 L91,53.5205129 C91,56.663668 88.6222532,59.0869556 85.4069803,59.0869556 C82.1917074,59.0869556 79.8125338,56.663668 79.8125338,53.5205129 L79.8125338,53.5205129 L79.8125338,53.38976 C79.8125338,50.2473313 82.1917074,47.8247701 85.4069803,47.8247701 Z M61.2842293,31.216969 C55.5257018,31.216969 52.0842826,35.7323035 52.0842826,41.0561269 L52.0842826,41.1905118 C52.0842826,46.5150616 55.8574307,51.164781 61.4162074,51.164781 C67.1747348,51.164781 70.6161541,46.650173 70.6161541,41.3248968 L70.6161541,41.1905118 C70.6161541,35.865962 66.8444328,31.216969 61.2842293,31.216969 Z" fill-rule="nonzero"></path>
                    </g>
                </g>
            </g>
        </g>
    </g>
</svg>